HIERARCHY
ROOT hip
{
  OFFSET 0 0 0
  CHANNELS 6 Xposition Yposition Zposition Zrotation Yrotation Xrotation
  JOINT abdomen
  {
    OFFSET 0 20.6881 -0.73152
    CHANNELS 3 Zrotation Xrotation Yrotation
    JOINT chest
    {
      OFFSET 0 11.7043 -0.48768
      CHANNELS 3 Zrotation Xrotation Yrotation
      JOINT neck
      {
        OFFSET 0 22.1894 -2.19456
        CHANNELS 3 Zrotation Xrotation Yrotation
        JOINT head
        {
          OFFSET -0.24384 7.07133 1.2192
          CHANNELS 3 Zrotation Xrotation Yrotation
          JOINT leftEye
          {
            OFFSET 4.14528 8.04674 8.04672
            CHANNELS 3 Zrotation Xrotation Yrotation
            End Site
            {
              OFFSET 1 0 0
            }
          }
          JOINT rightEye
          {
            OFFSET -3.6576 8.04674 8.04672
            CHANNELS 3 Zrotation Xrotation Yrotation
            End Site
            {
              OFFSET 1 0 0
            }
          }
        }
      }
      JOINT rCollar
      {
        OFFSET -2.68224 19.2634 -4.8768
        CHANNELS 3 Zrotation Xrotation Yrotation
        JOINT rShldr
        {
          OFFSET -8.77824 -1.95073 1.46304
          CHANNELS 3 Zrotation Xrotation Yrotation
          JOINT rForeArm
          {
            OFFSET -28.1742 -1.7115 0.48768
            CHANNELS 3 Zrotation Xrotation Yrotation
            JOINT rHand
            {
              OFFSET -22.5879 0.773209 7.07136
              CHANNELS 3 Zrotation Xrotation Yrotation
              JOINT rThumb1
              {
                OFFSET -1.2192 -0.487915 3.41376
                CHANNELS 3 Zrotation Xrotation Yrotation
                JOINT rThumb2
                {
                  OFFSET -3.37035 -0.52449 3.41376
                  CHANNELS 3 Zrotation Xrotation Yrotation
                  End Site
                  {
                    OFFSET -1.78271 -1.18214 1.43049
                  }
                }
              }
              JOINT rIndex1
              {
                OFFSET -7.75947 0.938293 5.60832
                CHANNELS 3 Zrotation Xrotation Yrotation
                JOINT rIndex2
                {
                  OFFSET -2.54057 -0.884171 1.56538
                  CHANNELS 3 Zrotation Xrotation Yrotation
                  End Site
                  {
                    OFFSET -1.62519 -0.234802 1.16502
                  }
                }
              }
              JOINT rMid1
              {
                OFFSET -8.24714 1.18213 3.41376
                CHANNELS 3 Zrotation Xrotation Yrotation
                JOINT rMid2
                {
                  OFFSET -3.10165 -0.590103 1.0647
                  CHANNELS 3 Zrotation Xrotation Yrotation
                  End Site
                  {
                    OFFSET -2.48547 -0.328903 0.83742
                  }
                }
              }
              JOINT rRing1
              {
                OFFSET -8.82822 0.546677 1.51678
                CHANNELS 3 Zrotation Xrotation Yrotation
                JOINT rRing2
                {
                  OFFSET -2.60934 -0.819778 -0.0198488
                  CHANNELS 3 Zrotation Xrotation Yrotation
                  End Site
                  {
                    OFFSET -2.33842 -0.294052 0.168128
                  }
                }
              }
              JOINT rPinky1
              {
                OFFSET -8.27202 -0.0477905 -0.4584
                CHANNELS 3 Zrotation Xrotation Yrotation
                JOINT rPinky2
                {
                  OFFSET -1.82734 -0.647385 -0.700984
                  CHANNELS 3 Zrotation Xrotation Yrotation
                  End Site
                  {
                    OFFSET -1.69225 -0.51767 -0.607171
                  }
                }
              }
            }
          }
        }
      }
      JOINT lCollar
      {
        OFFSET 2.68224 19.2634 -4.8768
        CHANNELS 3 Zrotation Xrotation Yrotation
        JOINT lShldr
        {
          OFFSET 8.77824 -1.95073 1.46304
          CHANNELS 3 Zrotation Xrotation Yrotation
          JOINT lForeArm
          {
            OFFSET 28.1742 -1.7115 0.48768
            CHANNELS 3 Zrotation Xrotation Yrotation
            JOINT lHand
            {
              OFFSET 22.5879 0.773209 7.07136
              CHANNELS 3 Zrotation Xrotation Yrotation
              JOINT lThumb1
              {
                OFFSET 1.2192 -0.487915 3.41376
                CHANNELS 3 Zrotation Xrotation Yrotation
                JOINT lThumb2
                {
                  OFFSET 3.37035 -0.52449 3.41376
                  CHANNELS 3 Zrotation Xrotation Yrotation
                  End Site
                  {
                    OFFSET 1.78271 -1.18214 1.43049
                  }
                }
              }
              JOINT lIndex1
              {
                OFFSET 7.75947 0.938293 5.60832
                CHANNELS 3 Zrotation Xrotation Yrotation
                JOINT lIndex2
                {
                  OFFSET 2.54057 -0.884171 1.56538
                  CHANNELS 3 Zrotation Xrotation Yrotation
                  End Site
                  {
                    OFFSET 1.62519 -0.234802 1.16502
                  }
                }
              }
              JOINT lMid1
              {
                OFFSET 8.24714 1.18213 3.41376
                CHANNELS 3 Zrotation Xrotation Yrotation
                JOINT lMid2
                {
                  OFFSET 3.10165 -0.590103 1.0647
                  CHANNELS 3 Zrotation Xrotation Yrotation
                  End Site
                  {
                    OFFSET 2.48547 -0.328903 0.83742
                  }
                }
              }
              JOINT lRing1
              {
                OFFSET 8.82822 0.546677 1.51678
                CHANNELS 3 Zrotation Xrotation Yrotation
                JOINT lRing2
                {
                  OFFSET 2.60934 -0.819778 -0.0198488
                  CHANNELS 3 Zrotation Xrotation Yrotation
                  End Site
                  {
                    OFFSET 2.33842 -0.294052 0.168128
                  }
                }
              }
              JOINT lPinky1
              {
                OFFSET 8.27202 -0.0477905 -0.4584
                CHANNELS 3 Zrotation Xrotation Yrotation
                JOINT lPinky2
                {
                  OFFSET 1.82734 -0.647385 -0.700984
                  CHANNELS 3 Zrotation Xrotation Yrotation
                  End Site
                  {
                    OFFSET 1.69225 -0.51767 -0.607171
                  }
                }
              }
            }
          }
        }
      }
    }
  }
  JOINT rButtock
  {
    OFFSET -8.77824 4.35084 1.2192
    CHANNELS 3 Zrotation Xrotation Yrotation
    JOINT rThigh
    {
      OFFSET 0 -1.70687 -2.19456
      CHANNELS 3 Zrotation Xrotation Yrotation
      JOINT rShin
      {
        OFFSET 0 -36.8199 0.73152
        CHANNELS 3 Zrotation Xrotation Yrotation
        JOINT rFoot
        {
          OFFSET 0.73152 -45.1104 -5.12064
          CHANNELS 3 Zrotation Xrotation Yrotation
          End Site
          {
            OFFSET -1.1221 -3.69964 12.103
          }
        }
      }
    }
  }
  JOINT lButtock
  {
    OFFSET 8.77824 4.35084 1.2192
    CHANNELS 3 Zrotation Xrotation Yrotation
    JOINT lThigh
    {
      OFFSET 0 -1.70687 -2.19456
      CHANNELS 3 Zrotation Xrotation Yrotation
      JOINT lShin
      {
        OFFSET 0 -36.8199 0.73152
        CHANNELS 3 Zrotation Xrotation Yrotation
        JOINT lFoot
        {
          OFFSET -0.73152 -45.1104 -5.12064
          CHANNELS 3 Zrotation Xrotation Yrotation
          End Site
          {
            OFFSET 1.1221 -3.69964 12.103
          }
        }
      }
    }
  }
}
MOTION
Frames:	4
Frame Time:	0.03333
-1.8355879001319408 79.66925501823425 9.410796128213406 -1.6550606489181519 5.845353126525879 7.1080403327941895 -0.9963718056678772 1.6886827945709229 4.403756141662598 0.9349820613861084 -7.5885701179504395 1.4642295837402344 -5.978216648101807 11.616718292236328 -4.522707462310791 7.801886558532715 -19.791854858398438 -7.392446517944336 0.3430507779121399 0.37662816047668457 0.17353267967700958 -0.1128392294049263 0.24001923203468323 -0.4066846966743469 -0.2664632201194763 -0.25650903582572937 -0.41551920771598816 70.5797119140625 46.036014556884766 -4.156421184539795 -24.037574768066406 -19.545501708984375 51.19831466674805 -0.08029154688119888 -1.3229330778121948 -0.4885222613811493 -0.2604821026325226 -0.3254593312740326 -0.11748801171779633 0.09700389951467514 0.13395963609218597 -0.4130377769470215 0.3431917726993561 0.5674497485160828 0.011248420923948288 7.4085693359375 5.556710720062256 0.49635568261146545 -0.028888337314128876 -0.34924769401550293 0.3416251242160797 2.558574676513672 0.9781278371810913 0.037404756993055344 -0.20313744246959686 -0.22074949741363525 -0.44816091656684875 10.168935775756836 0.5575127005577087 -0.19180145859718323 0.41340744495391846 0.03293919563293457 -0.058726124465465546 1.8889533281326294 -0.7579588294029236 0.26625898480415344 -0.5211331844329834 0.6416301131248474 0.5396860241889954 -74.43978118896484 53.84283447265625 -5.545169353485107 25.100845336914062 -20.598360061645508 -50.78621292114258 -0.11006195843219757 5.779758453369141 -1.1899031400680542 -0.13884922862052917 -0.1120331734418869 -0.357641339302063 0.2425394207239151 -0.3062925934791565 -0.13699078559875488 -0.14681442081928253 0.07965170592069626 0.4101373553276062 -8.302433967590332 5.719515800476074 -0.4243091344833374 -0.14987778663635254 0.08562445640563965 -0.5585604310035706 -3.1028454303741455 1.1963412761688232 0.2972070872783661 0.033187102526426315 0.14169733226299286 -0.04163721203804016 -11.061821937561035 1.046326994895935 -0.30770185589790344 -0.13877233862876892 -0.07011207193136215 -0.13561734557151794 -2.2379446029663086 -0.8276250958442688 0.5787339806556702 0.323800653219223 0.1612011194229126 -0.24784693121910095 -2.7779359817504883 -22.66631507873535 -0.9365724325180054 -0.8797536492347717 37.83074188232422 1.1401907205581665 -6.0357346534729 -6.685121536254883 -22.927104949951172 -0.0690343976020813 -0.5090249180793762 -0.2967813313007355 8.554386138916016 -24.746307373046875 -2.330601215362549 0.11165433377027512 37.08758544921875 0.1786596029996872 2.716111660003662 -11.991639137268066 8.14714527130127
-1.888004969805479 79.46915030479431 9.622800722718239 -1.8941385746002197 5.64970588684082 7.194715976715088 -0.9646608829498291 1.5383765697479248 4.4733428955078125 0.9145286679267883 -7.565824031829834 1.4593071937561035 -5.975654125213623 11.544305801391602 -4.524707794189453 7.837865352630615 -19.43567657470703 -7.292498588562012 0.33288270235061646 0.3753078877925873 0.1894925832748413 -0.09262838214635849 0.22726286947727203 -0.4165942370891571 -0.2530018091201782 -0.24058017134666443 -0.3904041051864624 71.50894165039062 45.653507232666016 -5.024107456207275 -23.681079864501953 -18.82748031616211 50.028709411621094 -0.0635465607047081 -0.9642207622528076 -0.4308865964412689 -0.277219295501709 -0.3368073105812073 -0.1456688642501831 0.09514588117599487 0.11495233327150345 -0.34816956520080566 0.3693130612373352 0.5697342157363892 0.03383263945579529 7.406537055969238 5.537747383117676 0.45543068647384644 -0.023773953318595886 -0.3378729522228241 0.33344414830207825 2.539590835571289 0.9942112565040588 0.04974602162837982 -0.22496356070041656 -0.21146835386753082 -0.45118534564971924 10.122245788574219 0.5464156866073608 -0.2098279893398285 0.38682347536087036 0.019811827689409256 -0.05874355137348175 1.897154688835144 -0.7846454381942749 0.25540661811828613 -0.528785228729248 0.6467276811599731 0.5355225801467896 -74.86872863769531 53.18062973022461 -4.977322578430176 24.83062744140625 -20.138425827026367 -50.070011138916016 -0.11903940141201019 6.179381370544434 -1.2835053205490112 -0.14522065222263336 -0.11670809984207153 -0.32413190603256226 0.2613508701324463 -0.27326831221580505 -0.17605151236057281 -0.13330383598804474 0.09671010076999664 0.41911575198173523 -8.296698570251465 5.726664066314697 -0.41866427659988403 -0.13956408202648163 0.0944872573018074 -0.5703997611999512 -3.0462429523468018 1.1662191152572632 0.2748032510280609 0.026495354250073433 0.17294767498970032 -0.10183104127645493 -11.036407470703125 1.0096087455749512 -0.3213268518447876 -0.14036503434181213 -0.07226624339818954 -0.11796213686466217 -2.2622463703155518 -0.802809476852417 0.566205620765686 0.2855604290962219 0.13648593425750732 -0.23776575922966003 -2.6471364498138428 -22.2841854095459 -0.6760602593421936 -0.8912725448608398 37.316131591796875 1.134613037109375 -5.969775676727295 -6.764911651611328 -22.678998947143555 -0.039320409297943115 -0.4949881434440613 -0.2859203815460205 8.548221588134766 -24.47591209411621 -2.305192232131958 0.10782651603221893 36.78800582885742 0.18900540471076965 2.743312120437622 -11.817402839660645 8.422554969787598
-1.9062272273004055 79.3700635433197 9.84873492270708 -2.1450376510620117 6.0132036209106445 7.092539310455322 -1.0399048328399658 1.573581337928772 4.448894023895264 0.9646700620651245 -7.567352294921875 1.4362298250198364 -6.004885196685791 11.529375076293945 -4.605291843414307 7.936230182647705 -19.254314422607422 -7.396377086639404 0.30571824312210083 0.36552363634109497 0.17612655460834503 -0.08128923177719116 0.22069373726844788 -0.42795005440711975 -0.23564063012599945 -0.22983790934085846 -0.36688339710235596 71.92372131347656 45.15437316894531 -5.203092098236084 -23.390661239624023 -18.277103424072266 49.19343185424805 -0.058716580271720886 -0.6622516512870789 -0.3789195120334625 -0.27606770396232605 -0.3572360575199127 -0.1750229299068451 0.09150278568267822 0.10348305106163025 -0.2927624583244324 0.36440393328666687 0.5591909885406494 0.06435569375753403 7.432076930999756 5.531468391418457 0.4215695858001709 -0.017004238441586494 -0.30892714858055115 0.32078203558921814 2.5246477127075195 1.0206435918807983 0.07867880165576935 -0.2557815909385681 -0.20815281569957733 -0.44576382637023926 10.074332237243652 0.5463647842407227 -0.23031270503997803 0.3475358784198761 -0.01151313353329897 -0.039469148963689804 1.904487133026123 -0.8032814860343933 0.2415226548910141 -0.5238913893699646 0.6403274536132812 0.5183609127998352 -75.0609130859375 53.05534744262695 -4.860046863555908 24.72986602783203 -19.98377227783203 -49.828529357910156 -0.11136900633573532 6.202884197235107 -1.3251792192459106 -0.1350703239440918 -0.10691699385643005 -0.3181556761264801 0.28144723176956177 -0.2639598250389099 -0.200198233127594 -0.11009138822555542 0.10771484673023224 0.4090518653392792 -8.292978286743164 5.722537994384766 -0.44140419363975525 -0.13686655461788177 0.10796759277582169 -0.5814247131347656 -2.9983971118927 1.1277679204940796 0.25674107670783997 0.021824976429343224 0.19389930367469788 -0.15054026246070862 -11.008779525756836 0.9775506258010864 -0.31976747512817383 -0.15618504583835602 -0.08259439468383789 -0.11953965574502945 -2.273576259613037 -0.7767029404640198 0.5634434223175049 0.27095723152160645 0.1057806983590126 -0.21160633862018585 -2.6979105472564697 -22.68045425415039 -0.5743787884712219 -0.908268392086029 37.57811737060547 1.1425832509994507 -5.8953447341918945 -6.788858890533447 -22.225440979003906 -0.007139058783650398 -0.48802292346954346 -0.25947773456573486 8.411737442016602 -24.25263023376465 -2.331012487411499 0.1035396009683609 36.881675720214844 0.18352016806602478 2.84045672416687 -11.815692901611328 8.858796119689941
-1.8918310292065144 79.14906740188599 10.107387229800224 -2.3179590702056885 6.480113506317139 6.888705730438232 -1.1396892070770264 1.671712875366211 4.37982702255249 1.0495191812515259 -7.5477447509765625 1.4065190553665161 -6.023377895355225 11.490251541137695 -4.700378894805908 8.019185066223145 -19.120420455932617 -7.559121131896973 0.27188459038734436 0.34952521324157715 0.13717249035835266 -0.08468218147754669 0.21829625964164734 -0.43589523434638977 -0.22022560238838196 -0.22790880501270294 -0.3458011746406555 71.83030700683594 44.48552703857422 -4.934097766876221 -23.066499710083008 -17.689250946044922 48.29185485839844 -0.06026929244399071 -0.4078806936740875 -0.32655221223831177 -0.2717127799987793 -0.3777691125869751 -0.20716866850852966 0.1031411662697792 0.09092105180025101 -0.2557319402694702 0.3457382619380951 0.5469759702682495 0.09028717875480652 7.4396891593933105 5.510349750518799 0.3935161232948303 0.005079904571175575 -0.27199238538742065 0.3087715804576874 2.508925676345825 1.0473315715789795 0.10146254301071167 -0.2991243302822113 -0.2146196812391281 -0.42000845074653625 10.029138565063477 0.5529134273529053 -0.24114494025707245 0.3092767000198364 -0.036682434380054474 -0.022266611456871033 1.9165678024291992 -0.8201655745506287 0.2229272425174713 -0.517026424407959 0.6315354108810425 0.4873146414756775 -74.79642486572266 52.945369720458984 -5.143704414367676 24.618722915649414 -19.77756690979004 -49.47426986694336 -0.10132220387458801 6.242640018463135 -1.372483253479004 -0.12410027533769608 -0.10228405147790909 -0.3267330527305603 0.28644806146621704 -0.2658241391181946 -0.20879320800304413 -0.09368689358234406 0.11292418837547302 0.38435932993888855 -8.24630355834961 5.70399284362793 -0.46558642387390137 -0.14097042381763458 0.11619877070188522 -0.5843353271484375 -2.9555516242980957 1.0881541967391968 0.24741727113723755 0.024067681282758713 0.2087026983499527 -0.17800423502922058 -10.967846870422363 0.964938759803772 -0.3112727403640747 -0.1693139374256134 -0.10132323950529099 -0.11928076297044754 -2.2649312019348145 -0.7615764141082764 0.5628950595855713 0.26726290583610535 0.08226961642503738 -0.1845022290945053 -2.713153600692749 -23.18596649169922 -0.4495745599269867 -0.9023456573486328 37.933048248291016 1.157181739807129 -5.828740119934082 -6.777917385101318 -21.703092575073242 0.009517786093056202 -0.48460233211517334 -0.23460404574871063 8.084909439086914 -24.060956954956055 -2.4969875812530518 0.10322099924087524 36.99891662597656 0.17822197079658508 2.928769111633301 -11.821084976196289 9.2235107421875
